<svg xmlns="http://www.w3.org/2000/svg" xmlns:xlink="http://www.w3.org/1999/xlink" version="1.1" style="" xml:space="preserve" width="26" height="26"><rect id="backgroundrect" width="100%" height="100%" x="0" y="0" fill="none" stroke="none"/>
<style type="text/css">
	.st0{fill-rule:evenodd;clip-rule:evenodd;}
</style>

<g class="currentLayer" style=""><title>Layer 1</title><g id="svg_1" class="">
	<g id="svg_2">
		<path class="st0" d="M26.075001525878903,25.874998283386233 v-2.1 l-5.2,-5.2 c3.4,-4.6 3.1,-11 -1.1,-15.2 c-4.5,-4.5 -11.9,-4.5 -16.4,0 c-4.5,4.5 -4.5,11.9 0,16.4 c4.1,4.1 10.6,4.5 15.2,1.1 l5.3,5.3 h2 L26.075001525878903,25.874998283386233 zM17.975001525878906,18.07499828338623 c-3.5,3.5 -9.3,3.5 -12.8,0 c-3.5,-3.5 -3.5,-9.3 0,-12.8 c3.5,-3.5 9.3,-3.5 12.8,0 C21.575001525878903,8.77499828338623 21.575001525878903,14.474998283386231 17.975001525878906,18.07499828338623 z" id="svg_3"/>
	</g>
</g></g></svg>